<?xml version="1.0" encoding="UTF-8"?>
<!DOCTYPE svg PUBLIC "-//W3C//DTD SVG 1.1//EN" "http://www.w3.org/Graphics/SVG/1.1/DTD/svg11.dtd">
<!-- Creator: CorelDRAW 2021 (64-Bit) -->
<svg xmlns="http://www.w3.org/2000/svg" xml:space="preserve" width="677.333mm" height="381mm" version="1.1" style="shape-rendering:geometricPrecision; text-rendering:geometricPrecision; image-rendering:optimizeQuality; fill-rule:evenodd; clip-rule:evenodd"
viewBox="0 0 67733.32 38100"
 xmlns:xlink="http://www.w3.org/1999/xlink"
 xmlns:xodm="http://www.corel.com/coreldraw/odm/2003">
 <defs>
  <style type="text/css">
   <![CDATA[
    .fil0 {fill:black;fill-rule:nonzero}
    .fil1 {fill:#035096;fill-rule:nonzero}
    .fil2 {fill:#3FA9F5;fill-rule:nonzero}
    .fil3 {fill:#3FA9F5;fill-rule:nonzero}
   ]]>
  </style>
 </defs>
 <g id="Layer_x0020_1">
  <metadata id="CorelCorpID_0Corel-Layer"/>
  <path class="fil0" d="M65699.79 13466.09l8.36 14.5c2.82,-4.84 5.68,-9.67 8.46,-14.5l-16.82 0z"/>
  <polygon class="fil1" points="23205.76,17013.18 19536.1,17013.18 18538.72,18708.56 18918.91,19428.27 19915.93,17702.23 20558.66,17702.23 18944.67,20519.3 18944.77,20539.37 17324.08,17702.23 18514.77,17702.23 18917.61,17013.18 16132.78,17013.18 18951.9,21896.02 21364.55,17702.23 21986.77,17702.23 19266.79,22441.24 19661.69,23125.27 22795.24,17702.23 "/>
  <path class="fil0" d="M16132.64 17013.18l3.07 5.3c1.02,-1.77 2.05,-3.53 3.07,-5.3l-6.14 0z"/>
  <path class="fil1" d="M16876.11 16256.84c715.05,-714.94 1702.15,-1156.94 2793.15,-1156.97 1091.01,0.03 2078.15,442.03 2793.19,1156.97 137.23,137.26 264.37,284.58 380.3,440.72l154.66 0c-133.81,-188.95 -283.25,-366.01 -446.48,-529.2 -737.27,-737.41 -1756.48,-1193.66 -2881.67,-1193.62 -1125.14,-0.04 -2144.36,456.21 -2881.63,1193.62 -163.26,163.19 -312.7,340.25 -446.47,529.2l154.62 0c115.92,-156.14 243.1,-303.46 380.33,-440.72z"/>
  <path class="fil1" d="M16876.11 21843.16c-714.94,-715.04 -1156.93,-1702.15 -1156.97,-2793.15 0.04,-555.8 114.8,-1084.61 321.88,-1564.25l-77.33 -133.95c-237.32,517.03 -369.71,1092.23 -369.68,1698.2 -0.03,1125.15 456.21,2144.36 1193.62,2881.63 652.75,652.85 1526.51,1085.29 2499.12,1175.84l-77.3 -133.87c-907.13,-105.13 -1720.25,-517.46 -2333.34,-1130.45z"/>
  <path class="fil1" d="M23373.57 17349.01l-77.29 133.85c207.89,480.41 323.1,1010.25 323.14,1567.14 -0.04,1091 -442.07,2078.14 -1156.97,2793.15 -619.34,619.23 -1442.79,1033.64 -2361.07,1133.55l-76.94 133.28c983.58,-84.95 1867.64,-519.36 2526.49,-1178.31 737.37,-737.31 1193.66,-1756.52 1193.62,-2881.67 0.04,-607.06 -132.86,-1183.25 -370.98,-1700.99z"/>
  <path class="fil2" d="M17320 21402.79l0.04 0.04c-301.31,-301.45 -544.94,-659.84 -713.21,-1057.7 -168.31,-397.9 -261.34,-835.2 -261.37,-1295.15 0,-297.08 39.12,-584.45 112.04,-858.13l-341.91 -583.57 -54.61 153.04c-142.91,400.47 -221.3,831.81 -222.22,1280.54l-0.07 1.31 0 6.84 0 0.11 0 0.11 0 0.07c-0.03,1057.87 429.58,2017.81 1123,2710.85l0 0c539.04,539.15 1238.85,918.67 2021.27,1060.91l159.49 28.99 -329.91 -586.28c-572.88,-152.82 -1085.01,-454.52 -1492.54,-861.98z"/>
  <path class="fil2" d="M23279.39 17758.03l-55.17 -154.13 -341.52 582.93c73.76,275.16 113.34,564.26 113.38,863.17 -0.07,459.92 -93.1,897.22 -261.37,1295.12 -168.31,397.86 -411.94,756.29 -713.21,1057.7l0.03 -0.04c-412.33,412.23 -931.54,716.39 -1512.46,867.52l-337.19 584.2 156.28 -27.09c794.67,-137.87 1505.69,-520.14 2051.72,-1066.27l-0.03 0c692.32,-691.94 1121.62,-1649.91 1122.96,-2705.84l0.03 -0.46 0 -4.84 0 -0.1 0 -0.07 0 0c0,-452.86 -78.95,-888.05 -223.45,-1291.8z"/>
  <path class="fil2" d="M17316.49 16696.32l-0.04 0.03c301.45,-301.31 659.84,-544.93 1057.7,-713.21 397.9,-168.27 835.2,-261.3 1295.15,-261.37 459.92,0.07 897.22,93.1 1295.12,261.37 397.86,168.31 756.25,411.94 1057.66,713.21l0 -0.03c0.39,0.42 0.78,0.84 1.2,1.23l678.54 0 -105.1 -124.14c-68.68,-81.18 -140.72,-159.85 -216.32,-235.45l0.04 0.04c-693.04,-693.42 -1652.98,-1123.03 -2711.17,-1123 -1058.16,-0.03 -2018.1,429.58 -2711.13,1123l0 0c-75.6,75.56 -147.61,154.23 -216.33,235.41l-105.09 124.14 678.57 0c0.39,-0.39 0.77,-0.81 1.2,-1.23z"/>
  <path class="fil1" d="M26489.88 20203.49l915.2 0 0 -2127.39 1057.63 1913.74 1059.15 -1913.74 0 2127.39 913.69 0 0 -3672.93 -913.69 0 -1059.15 1913.74 -1057.63 -1913.74 -915.2 0 0 3672.93zm6479.15 63.64c1074.3,0 1977.38,-871.26 1977.38,-1903.14 0,-1030.36 -903.08,-1897.07 -1977.38,-1897.07 -1069.76,0 -1972.84,866.71 -1972.84,1897.07 0,1031.88 903.08,1903.14 1972.84,1903.14zm0 -827.32c-562.15,0 -1037.94,-492.45 -1037.94,-1075.82 0,-577.3 475.79,-1068.24 1037.94,-1068.24 560.64,0 1036.42,490.94 1036.42,1068.24 0,583.37 -475.78,1075.82 -1036.42,1075.82zm3409.28 -54.55l0 -2854.7 -907.62 0 0 3672.93 2677.42 0 0 -818.23 -1769.8 0zm2266.8 818.23l915.2 0 0 -3672.93 -915.2 0 0 3672.93zm4212.35 0l1025.81 0 -1453.11 -3672.93 -1027.33 0 -1453.11 3672.93 1025.82 0 213.64 -534.88 1454.63 0 213.65 534.88zm-1384.93 -1251.58l443.97 -1127.34 443.96 1127.34 -887.93 0zm5394.24 1251.58l1025.81 0 -1453.11 -3672.93 -1027.33 0 -1453.11 3672.93 1025.82 0 213.64 -534.88 1454.63 0 213.65 534.88zm-1384.93 -1251.58l443.97 -1127.34 443.96 1127.34 -887.93 0zm2806.22 1251.58l915.2 0 0 -2169.82 1597.06 2169.82 915.2 0 0 -3672.93 -915.2 0 0 2171.33 -1597.06 -2171.33 -915.2 0 0 3672.93z"/>
  <path class="fil3" d="M26858.65 22013.13l170.85 0 0 -788.36 302.71 0 0 -157.21 -776.27 0 0 157.21 302.71 0 0 788.36zm1607.37 -788.36l0 -157.21 -711.52 0 0 945.57 711.52 0 0 -156.81 -539.49 0 0 -246.54 488.78 0 0 -156.81 -488.78 0 0 -228.2 539.49 0zm901.31 804.74c139.26,0 265.65,-58.9 356.54,-154.08l-120.93 -112.73c-59.29,67.48 -143.16,110 -235.61,110 -174.76,0 -321.82,-151.35 -321.82,-333.13 0,-180.22 147.06,-331.58 321.82,-331.58 90.89,0 176.32,42.91 234.05,110.01l122.49 -113.91c-90.89,-93.62 -217.28,-152.91 -356.54,-152.91 -269.55,0 -496.58,223.13 -496.58,488.39 0,265.64 227.03,489.94 496.58,489.94zm1407.65 -961.95l0 385.41 -472 0 0 -385.41 -172.03 0 0 945.57 172.03 0 0 -403.35 472 0 0 403.35 172.03 0 0 -945.57 -172.03 0zm655.17 945.57l172.03 0 0 -664.7 499.7 664.7 170.47 0 0 -945.57 -170.47 0 0 664.71 -499.7 -664.71 -172.03 0 0 945.57zm1786.03 16.38c268.38,0 495.41,-224.3 495.41,-489.94 0,-265.26 -227.03,-488.39 -495.41,-488.39 -269.55,0 -496.58,223.13 -496.58,488.39 0,265.64 227.03,489.94 496.58,489.94zm0 -156.81c-174.76,0 -321.82,-151.35 -321.82,-333.13 0,-180.22 147.06,-331.58 321.82,-331.58 173.59,0 319.48,151.36 319.48,331.58 0,181.78 -145.89,333.13 -319.48,333.13zm1943.45 155.64c225.47,0 354.97,-119.75 354.97,-289.05 0,-172.03 -132.23,-235.22 -328.84,-279.3 -150.18,-34.33 -220.39,-62.02 -220.39,-138.87 0,-66.32 64.75,-124.05 159.54,-124.05 93.62,0 188.8,39.79 271.11,111.57l93.62 -126.78c-94.79,-81.14 -207.53,-131.85 -357.71,-131.85 -199.72,0 -339.76,120.93 -339.76,285.93 0,177.49 136.14,234.05 331.57,279.3 151.35,35.89 218.84,62.03 218.84,140.43 0,67.49 -60.47,125.22 -177.49,125.22 -124.05,0 -224.3,-49.54 -311.29,-127.95l-99.08 122.49c104.54,97.91 242.24,152.91 404.91,152.91zm1498.15 -803.57l0 -157.21 -711.52 0 0 945.57 711.52 0 0 -156.81 -539.49 0 0 -246.54 488.78 0 0 -156.81 -488.78 0 0 -228.2 539.49 0zm1213.77 788.36l-236.78 -335.86c136.53,-42.52 228.59,-152.53 228.59,-295.69 0,-184.51 -151.35,-314.02 -353.81,-314.02l-411.54 0 0 945.57 172.03 0 0 -317.92 183.34 0 222.74 317.92 195.43 0zm-601.51 -787.19l220.4 0c117.02,0 198.16,59.29 198.16,155.64 0,96.35 -81.14,155.26 -198.16,155.26l-220.4 0 0 -310.9zm1743.9 -158.38l-300.37 716.98 -299.97 -716.98 -189.58 0 394.76 945.57 191.14 0 395.16 -945.57 -191.14 0zm594.32 945.57l170.47 0 0 -945.57 -170.47 0 0 945.57zm1104.94 16.38c139.26,0 265.65,-58.9 356.54,-154.08l-120.93 -112.73c-59.29,67.48 -143.16,110 -235.61,110 -174.76,0 -321.82,-151.35 -321.82,-333.13 0,-180.22 147.06,-331.58 321.82,-331.58 90.89,0 176.32,42.91 234.05,110.01l122.49 -113.91c-90.89,-93.62 -217.28,-152.91 -356.54,-152.91 -269.55,0 -496.58,223.13 -496.58,488.39 0,265.64 227.03,489.94 496.58,489.94zm1475.14 -804.74l0 -157.21 -711.52 0 0 945.57 711.52 0 0 -156.81 -539.49 0 0 -246.54 488.78 0 0 -156.81 -488.78 0 0 -228.2 539.49 0zm790.14 803.57c225.47,0 354.97,-119.75 354.97,-289.05 0,-172.03 -132.23,-235.22 -328.84,-279.3 -150.18,-34.33 -220.39,-62.02 -220.39,-138.87 0,-66.32 64.75,-124.05 159.54,-124.05 93.62,0 188.8,39.79 271.11,111.57l93.62 -126.78c-94.79,-81.14 -207.53,-131.85 -357.71,-131.85 -199.72,0 -339.76,120.93 -339.76,285.93 0,177.49 136.14,234.05 331.57,279.3 151.35,35.89 218.84,62.03 218.84,140.43 0,67.49 -60.47,125.22 -177.49,125.22 -124.05,0 -224.3,-49.54 -311.29,-127.95l-99.08 122.49c104.54,97.91 242.24,152.91 404.91,152.91zm1451.16 -15.21l172.03 0 0 -317.92 239.51 0c202.46,0 353.81,-129.51 353.81,-313.63 0,-184.51 -151.35,-314.02 -353.81,-314.02l-411.54 0 0 945.57zm172.03 -476.29l0 -310.9 220.4 0c117.02,0 198.16,59.29 198.16,155.64 0,96.35 -81.14,155.26 -198.16,155.26l-220.4 0zm1723.23 -469.28l-300.37 716.98 -299.97 -716.98 -189.58 0 394.76 945.57 191.14 0 395.16 -945.57 -191.14 0zm845.93 945.57l170.85 0 0 -788.36 302.71 0 0 -157.21 -776.27 0 0 157.21 302.71 0 0 788.36zm1723.05 -156.81l0 -788.76 -170.86 0 0 945.57 656.51 0 0 -156.81 -485.65 0zm1124.21 156.81l170.85 0 0 -788.36 302.71 0 0 -157.21 -776.27 0 0 157.21 302.71 0 0 788.36zm908.33 0l333.14 0c312.45,0 532.46,-196.6 532.46,-473.56 0,-276.57 -220.01,-472.01 -532.46,-472.01l-333.14 0 0 945.57zm172.03 -155.64l0 -634.28 179.05 0c199.33,0 339.76,130.68 339.76,316.36 0,186.07 -140.43,317.92 -339.76,317.92l-179.05 0z"/>
 </g>
</svg>
