<?xml version="1.0" encoding="UTF-8"?>
<!DOCTYPE svg PUBLIC "-//W3C//DTD SVG 1.1//EN" "http://www.w3.org/Graphics/SVG/1.1/DTD/svg11.dtd">
<!-- Creator: CorelDRAW 2021 (64-Bit) -->
<svg xmlns="http://www.w3.org/2000/svg" xml:space="preserve" width="6350mm" height="6350mm" version="1.1" style="shape-rendering:geometricPrecision; text-rendering:geometricPrecision; image-rendering:optimizeQuality; fill-rule:evenodd; clip-rule:evenodd"
viewBox="0 0 635000 635000"
 xmlns:xlink="http://www.w3.org/1999/xlink"
 xmlns:xodm="http://www.corel.com/coreldraw/odm/2003">
 <defs>
  <style type="text/css">
   <![CDATA[
    .fil1 {fill:black;fill-rule:nonzero}
    .fil0 {fill:#035096;fill-rule:nonzero}
    .fil2 {fill:#3FA9F5;fill-rule:nonzero}
   ]]>
  </style>
 </defs>
 <g id="Layer_x0020_1">
  <metadata id="CorelCorpID_0Corel-Layer"/>
  <polygon class="fil0" points="536912.87,197823.95 314372.28,197823.95 253887.78,300637.53 276943.79,344283.17 337406.45,239610.27 376383.77,239610.27 278505.96,410446.92 278512.02,411664.04 180227.9,239610.27 252435.37,239610.27 276864.95,197823.95 107983.44,197823.95 278944.41,493935.88 425255.67,239610.27 462989.19,239610.27 298040.41,526999.87 321988.48,568481.76 512017.55,239610.27 "/>
  <path class="fil1" d="M107974.95 197925.55l186.17 321.41c61.86,-107.34 124.32,-214.07 186.18,-321.41l-372.35 0z"/>
  <path class="fil0" d="M153061.48 152058.53c43363.05,-43356.38 103224.14,-70160.75 169386.07,-70162.57 66162.54,1.82 126026.04,26806.19 169388.49,70162.57 8322.09,8323.91 16032.29,17257.9 23062.68,26726.75l9379.1 0c-8114.69,-11458.56 -17177.24,-22196.08 -27076.06,-32092.47 -44710.54,-44719.04 -106518.88,-72387.59 -174754.21,-72385.16 -68232.3,-2.43 -130041.25,27666.12 -174751.79,72385.16 -9900.64,9896.39 -18963.19,20633.91 -27075.45,32092.47l9376.68 0c7029.78,-9468.85 14742.4,-18402.84 23064.49,-26726.75z"/>
  <path class="fil0" d="M153061.48 490831.87c-43356.38,-43362.44 -70160.14,-103224.13 -70162.57,-169386.06 2.43,-33705.59 6961.86,-65774.42 19519.89,-94861.41l-4689.55 -8123.18c-14391.89,31354.44 -22420.47,66236.52 -22418.65,102984.59 -1.82,68232.9 27666.12,130041.24 72385.16,174751.79 39584.97,39591.03 92572.73,65815.66 151555.09,71306.91l-4687.74 -8118.32c-55011.43,-6375.44 -104321.77,-31380.53 -141501.63,-68554.32z"/>
  <path class="fil0" d="M547089.44 218291.41l-4687.13 8117.12c12607.15,29133.69 19593.88,61264.98 19596.3,95036.67 -2.42,66161.93 -26808.62,126025.44 -70162.57,169386.07 -37558.87,37552.2 -87495.67,62683.42 -143183.27,68742.3l-4665.91 8082.55c59647.62,-5151.65 113260.01,-31495.74 153214.9,-71456.7 44716.62,-44712.97 72387.59,-106521.32 72385.16,-174754.22 2.43,-36814.17 -8057.08,-71756.28 -22497.48,-103153.79z"/>
  <path class="fil2" d="M179980.48 464126.35l2.42 2.42c-18272.46,-18280.95 -33047,-40014.93 -43251.47,-64142.5 -10206.88,-24130.01 -15848.54,-50649.36 -15850.36,-78542.28 0,-18015.94 2372.37,-35443.03 6794.49,-52039.91l-20734.58 -35389.66 -3311.74 9280.87c-8666.54,24285.85 -13420.38,50443.77 -13476.17,77656.28l-4.24 79.44 0 414.8 0 6.67 0 6.67 0 4.25c-1.82,64152.81 26051.18,122366.82 68102.51,164395.11l0 0c32689.21,32695.88 75128.06,55711.26 122576.65,64337.17l9672.02 1758.05 -20006.86 -35554c-34741.38,-9267.52 -65798.68,-27563.63 -90512.67,-52273.38z"/>
  <path class="fil2" d="M541378.04 243095.77l-3345.69 -9346.96 -20710.93 35350.84c4473.06,16686.64 6873.32,34218.64 6875.75,52345.55 -4.25,27891.11 -5645.9,54410.46 -15850.36,78540.46 -10206.89,24127.58 -24981.44,45863.98 -43251.47,64142.51l1.82 -2.43c-25005.09,24999.02 -56491.74,43444.31 -91720.69,52609.35l-20448.34 35427.86 9477.34 -1642.83c48191.48,-8360.9 91310.14,-31543.05 124423.24,-64662.22l-1.82 0c41984.63,-41961.58 68018.84,-100056.12 68100.1,-164091.29l1.82 -27.89 0 -293.52 0 -6.06 0 -4.25 0 0c0,-27462.96 -4787.8,-53854.35 -13550.77,-78339.12z"/>
  <path class="fil2" d="M179767.62 178710.09l-2.43 1.81c18280.95,-18272.45 40014.93,-33046.39 64142.51,-43251.46 24130,-10204.46 50649.35,-15846.12 78542.27,-15850.36 27891.11,4.24 54410.46,5645.9 78540.46,15850.36 24127.58,10206.89 45861.56,24981.43 64140.08,43251.46l0 -1.81c23.65,25.47 47.3,50.94 72.77,74.59l41148.96 0 -6373.61 -7528.27c-4164.99,-4923.03 -8533.74,-9693.85 -13118.38,-14278.49l2.42 2.43c-42028.29,-42051.34 -100242.29,-68104.34 -164414.52,-68102.52 -64170.4,-1.82 -122384.41,26051.18 -164412.09,68102.52l0 0c-4584.64,4582.21 -8951.57,9353.03 -13118.98,14276.06l-6373.02 7528.27 41150.78 0c23.66,-23.65 46.7,-49.12 72.78,-74.59z"/>
 </g>
</svg>
